PathFileType  4	(X/Y/Z) C:\PlaceHolderFilePath\
DataRate	CameraRate	NumFrames	NumMarkers	Units	OrigDataRate	OrigDataStartFrame	OrigNumFrames
  240.0		  240.0		   4		     47	     mm	  240.0	      1	   2384
Frame#	Time	R_acr			L_acr			back_T			back_mid			back_B			R_asis			L_asis			R_psis			L_psis			R_ilium			L_ilium			R_thigh_TA			R_thigh_TP			R_thigh_BA			R_thigh_BP			R_kneejoint_LA			R_tibtub			R_shank_TA			R_shank_TP			R_shank_BA			R_shank_BP			R_fibula			R_ankle_LA			R_heel_T			R_heel_LA			R_heel_B			R_latfoot			R_met_5			R_toe			L_thigh_TA			L_thigh_TP			L_thigh_BA			L_thigh_BP			L_kneejoint_LA			L_tibtub			L_shank_TA			L_shank_TP			L_shank_BA			L_shank_BP			L_fibula			L_ankle_LA			L_heel_T			L_heel_LA			L_heel_B			L_latfoot			L_met_5			L_toe			
		X1	Y1	Z1	X2	Y2	Z2	X3	Y3	Z3	X4	Y4	Z4	X5	Y5	Z5	X6	Y6	Z6	X7	Y7	Z7	X8	Y8	Z8	X9	Y9	Z9	X10	Y10	Z10	X11	Y11	Z11	X12	Y12	Z12	X13	Y13	Z13	X14	Y14	Z14	X15	Y15	Z15	X16	Y16	Z16	X17	Y17	Z17	X18	Y18	Z18	X19	Y19	Z19	X20	Y20	Z20	X21	Y21	Z21	X22	Y22	Z22	X23	Y23	Z23	X24	Y24	Z24	X25	Y25	Z25	X26	Y26	Z26	X27	Y27	Z27	X28	Y28	Z28	X29	Y29	Z29	X30	Y30	Z30	X31	Y31	Z31	X32	Y32	Z32	X33	Y33	Z33	X34	Y34	Z34	X35	Y35	Z35	X36	Y36	Z36	X37	Y37	Z37	X38	Y38	Z38	X39	Y39	Z39	X40	Y40	Z40	X41	Y41	Z41	X42	Y42	Z42	X43	Y43	Z43	X44	Y44	Z44	X45	Y45	Z45	X46	Y46	Z46	X47	Y47	Z47	

1	0.000000	893.128000	1650.598000	791.145000	842.575000	1632.546000	478.837000	761.529000	1378.817000	673.677000	769.900000	1312.845000	643.998000	787.273000	1279.737000	709.289000	982.724000	1095.033000	776.926000	1002.639000	1113.100000	536.072000	792.337000	1156.074000	687.201000	795.673000	1147.789000	589.503000	781.981000	1126.232000	751.959000	805.997000	1110.378000	531.118000	855.371000	756.320000	786.315000	782.604000	775.828000	792.146000	842.595000	689.039000	768.267000	766.054000	709.609000	777.300000	729.547000	587.030000	751.904000	719.417000	503.518000	707.567000	623.006000	493.326000	759.459000	575.998000	549.654000	761.150000	562.326000	462.222000	753.252000	533.430000	516.249000	754.319000	419.951000	418.593000	721.767000	329.479000	358.859000	712.676000	302.367000	410.535000	672.138000	257.808000	387.795000	695.856000	254.226000	408.145000	655.971000	295.651000	271.421000	717.528000	269.797000	216.887000	722.181000	350.932000	132.863000	661.836000	1102.399000	806.255000	499.716000	1035.781000	774.684000	479.972000	1126.413000	740.916000	510.292000	1057.601000	707.349000	495.656000	1130.585000	595.172000	527.390000	1187.147000	557.877000	578.027000	1163.587000	465.453000	513.346000	1097.253000	440.800000	518.004000	1180.003000	402.401000	523.622000	1116.414000	391.382000	524.830000	1199.266000	254.299000	554.684000	1231.925000	156.616000	564.894000	1180.805000	118.605000	598.546000	1214.922000	86.339000	570.630000	1193.510000	69.540000	602.828000	1306.187000	130.456000	561.318000	1380.779000	132.346000	557.455000	1445.950000	222.855000	629.128000
2	0.004170	893.226000	1649.359000	791.022000	843.463000	1631.421000	478.078000	760.947000	1377.999000	672.726000	769.350000	1311.895000	643.411000	786.422000	1279.009000	708.840000	983.464000	1094.701000	776.893000	1002.486000	1112.561000	536.177000	792.149000	1154.229000	688.160000	795.647000	1146.128000	590.229000	782.851000	1124.349000	752.890000	805.816000	1108.690000	531.857000	859.973000	754.765000	786.779000	787.179000	773.426000	792.978000	847.878000	687.070000	768.828000	771.118000	706.714000	778.211000	735.936000	584.071000	752.840000	724.346000	500.819000	708.392000	627.241000	493.239000	760.294000	581.851000	550.901000	761.880000	565.582000	463.971000	754.007000	538.244000	518.749000	754.889000	421.955000	425.010000	722.139000	329.569000	367.831000	713.318000	303.261000	419.866000	673.925000	258.965000	398.967000	695.863000	256.638000	419.193000	655.697000	293.292000	281.707000	718.046000	265.980000	227.910000	722.754000	345.095000	141.803000	662.067000	1100.197000	803.682000	499.258000	1033.542000	772.616000	478.784000	1123.901000	738.140000	509.240000	1054.888000	705.042000	493.787000	1127.472000	592.677000	527.575000	1184.019000	555.864000	578.377000	1160.613000	462.799000	513.841000	1094.390000	438.065000	519.126000	1177.691000	399.064000	525.029000	1113.553000	388.773000	524.805000	1197.304000	252.029000	555.707000	1230.836000	154.620000	566.058000	1179.784000	116.325000	599.443000	1214.356000	84.015000	571.829000	1192.639000	67.331000	603.781000	1305.354000	128.762000	562.942000	1379.879000	130.861000	559.591000	1444.396000	221.869000	631.518000
3	0.008330	893.337000	1647.979000	791.085000	844.491000	1629.912000	476.908000	760.436000	1376.881000	671.936000	768.787000	1310.666000	642.856000	785.533000	1278.045000	708.561000	984.179000	1094.240000	776.814000	1002.108000	1111.767000	536.190000	793.226000	1152.082000	688.374000	795.683000	1144.455000	591.002000	783.835000	1121.984000	753.791000	805.584000	1107.007000	532.752000	864.427000	752.528000	786.930000	791.372000	770.324000	793.240000	853.176000	684.901000	769.604000	776.284000	703.656000	779.071000	742.561000	580.850000	754.301000	729.685000	497.782000	709.613000	631.798000	492.848000	761.173000	587.536000	552.209000	762.906000	569.327000	465.478000	754.810000	543.626000	521.058000	755.847000	424.517000	431.490000	722.686000	330.434000	376.739000	714.005000	306.574000	430.199000	672.721000	260.897000	409.464000	696.453000	259.916000	430.556000	654.531000	291.718000	292.014000	718.643000	262.836000	239.046000	723.423000	339.295000	150.370000	663.495000	1098.673000	801.332000	499.061000	1031.938000	770.597000	477.934000	1121.907000	735.441000	508.804000	1052.928000	702.881000	492.748000	1124.525000	590.243000	527.798000	1180.915000	553.872000	578.744000	1157.315000	460.007000	514.266000	1091.155000	435.329000	520.095000	1174.505000	396.309000	525.710000	1110.411000	385.982000	526.063000	1194.326000	249.490000	556.799000	1228.136000	152.165000	567.359000	1177.124000	113.981000	600.801000	1211.743000	81.470000	573.555000	1189.834000	65.137000	605.630000	1302.721000	126.253000	564.435000	1377.247000	128.436000	561.183000	1441.747000	219.694000	632.738000
4	0.012500	893.487000	1646.317000	791.082000	845.502000	1628.128000	475.938000	759.845000	1375.710000	671.298000	768.542000	1309.549000	642.418000	784.644000	1276.954000	708.360000	984.867000	1093.460000	776.702000	1001.352000	1110.560000	536.235000	793.373000	1149.725000	689.335000	795.498000	1142.600000	591.851000	784.969000	1119.308000	754.763000	805.195000	1105.402000	533.601000	869.255000	750.524000	787.726000	795.841000	767.239000	793.915000	858.686000	682.566000	770.528000	781.666000	700.572000	780.195000	749.481000	577.387000	754.415000	735.639000	494.381000	710.804000	636.922000	492.317000	762.122000	594.765000	552.858000	762.990000	573.632000	466.845000	755.602000	549.622000	523.059000	756.511000	427.850000	437.592000	723.101000	332.072000	385.744000	714.210000	309.862000	439.860000	672.847000	263.571000	420.709000	695.754000	262.497000	441.439000	655.861000	290.906000	302.389000	719.346000	260.467000	250.334000	724.199000	334.443000	159.016000	665.003000	1097.752000	799.075000	499.240000	1030.916000	768.837000	477.795000	1120.506000	733.116000	509.283000	1051.352000	700.917000	492.832000	1121.584000	587.658000	528.052000	1177.890000	551.722000	579.038000	1153.764000	457.141000	514.650000	1088.120000	431.574000	521.729000	1170.959000	393.518000	526.587000	1106.949000	383.045000	528.468000	1190.666000	246.868000	557.777000	1223.784000	149.139000	568.741000	1173.087000	111.481000	602.694000	1207.446000	78.525000	575.587000	1184.708000	62.806000	607.945000	1298.413000	122.031000	566.910000	1372.858000	124.954000	562.285000	1438.101000	216.413000	632.839000
